# xmcd
#
# Track frame offsets:
#	182
#	20105
#	38892
#	52270
#	69052
#	87892
#	100762
#	122157
#	140662
#	155402
#	169497
#	187062
#	211032
#	225595
#
# Disc length: 3224 seconds
#
# Revision: 1
# Processed by: cddbd v1.4PL0 Copyright (c) Steve Scherf et al.
# Submitted via: audiograbber 1.80.04
#
DISCID=c30c960e
DTITLE=André Proulx - Instrumental Country Vol.I
DYEAR=1900
DGENRE=Pop
TTITLE0=Quand on est en amour
TTITLE1=Achy breaky heart
TTITLE2=Vole Colombe
TTITLE3=Tennesee waltz
TTITLE4=Pot-pourrit "Blue-grass"
TTITLE5=Don't rock the jukebox
TTITLE6=Blue by you
TTITLE7=A ma mère (Perce les nuages)
TTITLE8=Un jour à la fois (One day at a time)
TTITLE9=Guitar Cadillac
TTITLE10=You are always on my mind
TTITLE11=Le train
TTITLE12=Dueling banjo
TTITLE13=Andy to step
EXTD=
EXTT0=
EXTT1=
EXTT2=
EXTT3=
EXTT4=
EXTT5=
EXTT6=
EXTT7=
EXTT8=
EXTT9=
EXTT10=
EXTT11=
EXTT12=
EXTT13=
PLAYORDER=
